# xmcd
#
# Track frame offsets:
#	150
#	14883
#	29753
#	44443
#	62490
#	84980
#	104048
#	123640
#	139105
#	157798
#	175790
#	194433
#	210263
#	225085
#	242738
#	262303
#	277800
#	295823
#	310100
#	330430
#
# Disc length: 4627 seconds
#
# Revision: 2
# Processed by: cddbd v1.5.2PL0 Copyright (c) Steve Scherf et al.
# Submitted via: audiograbber 1.83.01
#
DISCID=1a121114
DTITLE=Various Artist - DISCO KING
DYEAR=2001
DGENRE=Disco
TTITLE0=THE STYLISTICS - CAN'T GIVE YOU ANYTHING (BUT MY LOVE)
TTITLE1=GEORGE McCRAE - ROCK YOUR BABY
TTITLE2=CARL DOUGLAS - KUNG FU FIGHTING
TTITLE3=SILVER CONVENTION - GET UP AND BOOGIE (THAT'S RIGHT)
TTITLE4=OSIBISA - SUNSHINE DAY
TTITLE5=FUNKY BUREAU - CLAP YOUR HANDS TOGETHER
TTITLE6=INNER LIFE - I'M CAUGHT UP (IN A ONE NIGHT LOVE AFFAIR)
TTITLE7=THE WHISPERS - AND THE BEST GOES ON
TTITLE8=''D'' TRAIN - YOU'RE THE ONE FOR ME
TTITLE9=AFRIKA and THE ZULU KINGS - THE BEACH
TTITLE10=SHOCK - THAT'S A LADY
TTITLE11=SYLVESTER with PATRICK COWLEY - DO YA WANNA FUNK
TTITLE12=HOT GOSSIP - BREAK ME INTO LITTLE PIECES
TTITLE13=FRANKIE GOES TO HOLLYWOOD - RELAX
TTITLE14=LIME - UNEXPECTED LOVERS
TTITLE15=MICHAEL FORTUNATI - GIVE ME UP 2000 (Rap Mix)
TTITLE16=JIGSAW - SKY HIGH (Pete Hammond Mix)
TTITLE17=GREEN OLIVES - JIVE INTO THE NIGHT
TTITLE18=GENGHIS KHAN - MOSKAU
TTITLE19=THE CHI-LITES - OH GIRL
EXTD=
EXTT0=
EXTT1=
EXTT2=
EXTT3=
EXTT4=
EXTT5=
EXTT6=
EXTT7=
EXTT8=
EXTT9=
EXTT10=
EXTT11=
EXTT12=
EXTT13=
EXTT14=
EXTT15=
EXTT16=
EXTT17=
EXTT18=
EXTT19=
PLAYORDER=
